<svg width="14" height="14" viewBox="0 0 14 14" fill="none" xmlns="http://www.w3.org/2000/svg">
<path d="M12.2929 13.7071C12.6834 14.0976 13.3166 14.0976 13.7071 13.7071C14.0976 13.3166 14.0976 12.6834 13.7071 12.2929L8.41422 7.00001L13.7071 1.70711C14.0976 1.31658 14.0976 0.683421 13.7071 0.292891C13.3166 -0.0976302 12.6834 -0.0976302 12.2929 0.292891L7.00001 5.58581L1.70711 0.292891C1.31658 -0.0976302 0.683421 -0.0976302 0.292891 0.292891C-0.0976302 0.683421 -0.0976302 1.31658 0.292891 1.70711L5.58581 7.00001L0.292891 12.2929C-0.0976302 12.6834 -0.0976302 13.3166 0.292891 13.7071C0.683421 14.0976 1.31658 14.0976 1.70711 13.7071L7.00001 8.41422L12.2929 13.7071Z" fill="#191919"/>
</svg>
